PathFileType	4	(X/Y/Z)	72_1_17_p1_0-310.trc
DataRate	CameraRate	NumFrames	NumMarkers	Units	OrigDataRate	OrigDataStartFrame	OrigNumFrames
48.0	48.0	6	27	m	48.0	77	311
Frame#	Time	RHip			RKnee			RAnkle			RBigToe			RSmallToe			RHeel			LHip			LKnee			LAnkle			LBigToe			LSmallToe			LHeel			Neck			Head			Nose			RShoulder			RElbow			RWrist			RThumb			RIndex			RPinky			LShoulder			LElbow			LWrist			LThumb			LIndex			LPinky			
		X1	Y1	Z1	X2	Y2	Z2	X3	Y3	Z3	X4	Y4	Z4	X5	Y5	Z5	X6	Y6	Z6	X7	Y7	Z7	X8	Y8	Z8	X9	Y9	Z9	X10	Y10	Z10	X11	Y11	Z11	X12	Y12	Z12	X13	Y13	Z13	X14	Y14	Z14	X15	Y15	Z15	X16	Y16	Z16	X17	Y17	Z17	X18	Y18	Z18	X19	Y19	Z19	X20	Y20	Z20	X21	Y21	Z21	X22	Y22	Z22	X23	Y23	Z23	X24	Y24	Z24	X25	Y25	Z25	X26	Y26	Z26	X27	Y27	Z27	
77	1.6041666666666667	0.22871086345480532	0.535132961038225	0.608137362606525	0.23967902698702978	0.6116852012327412	1.0654751361753123	0.2153707359400721	0.6663217856606144	1.4651436568541352	0.15759660169525333	0.4230459067169875	1.4581492262932594	0.22764053769251652	0.4218216647585568	1.4421922089557568	0.19982221811178016	0.7527142186658501	1.5625714406912952	-0.004677785358750913	0.5860596864169554	0.6219958974543183	-0.008868613288408954	0.6257663425805063	1.0441169352549042	-0.008091101543408074	0.6585683721479937	1.4410549865584465	-0.011520389887523994	0.4338414903011468	1.4298872330497845	-0.05989493418664166	0.47992009628553134	1.4389878456549803	0.02031337371414739	0.7319722915033077	1.5107136847319822	0.1000996681382687	0.5931201044374818	-0.003366302193698459	0.07659390973967421	0.46644639034625096	-0.27160374005516186	0.062054152305994516	0.4268083007663359	-0.13476104365041927	0.27241418505991605	0.5465973112800352	0.07662243766856662	0.40458489876276954	0.6474086181831729	0.3420486108550995	0.2994310871467505	0.440826649666826	0.5040926561171353	0.19558230526749698	0.3926437816843675	0.5925488689741247	0.20622640225230757	0.3882522938691178	0.5991416488969443	0.2514263938017373	0.4459763108286949	0.6297449848965055	-0.06157084222081212	0.5989068678299334	0.08428413339960385	-0.13521570325408303	0.6954975256618171	0.3571945293460164	-0.21010793971537278	0.46943916456133344	0.459435470113522	-0.20668503261470642	0.3404363278624073	0.45794907321387157	-0.24174140651084683	0.32990665505753025	0.4872564760848102	-0.2422526811960813	0.398330066757528	0.5485023876193988
78	1.625	0.2287085865380311	0.5350157600355263	0.6078433421879083	0.2343240234881755	0.5995995159490721	1.0599850414804635	0.21432002834579092	0.6662506996885929	1.4694866665069868	0.15771000537299415	0.4235487724954953	1.458338783628144	0.2277076944638441	0.4223248228757907	1.4424146381703649	0.1997342823340344	0.7524490913874842	1.5622337487765616	-0.0052184587732284115	0.5846816305949228	0.6169765031223315	-0.010505304739775075	0.624368355684549	1.0430288864108666	-0.008041696784331092	0.6586149905939903	1.4408991873922492	-0.01151602460458237	0.43349199657738424	1.429807592873722	-0.05982899973169214	0.47960579578049867	1.4388664092944508	0.01918083745601048	0.7323025146424684	1.5163937064623638	0.10010942969840114	0.593084547751566	-0.0033715867437405086	0.0766060599592683	0.46648132756651706	-0.27154278371341006	0.06201702690791396	0.4268460625383875	-0.13478144532402392	0.2721124767781777	0.5466718271988367	0.07310439612349007	0.4045791817745959	0.6474477694038624	0.34202293860662153	0.29954920504132027	0.4410389462427666	0.5040446971497078	0.2007319573840116	0.4032358666445499	0.595778976384247	0.2042579749485781	0.4006128696903997	0.6031874206821739	0.2560907921695144	0.4562850958921103	0.6292812089857193	-0.06562122457209552	0.587512769658759	0.08283831946468852	-0.13179889355112492	0.6814288572107086	0.3501541947256478	-0.20181920705636375	0.4686267263174085	0.4555260604691215	-0.19513226827714422	0.3200329245919127	0.4566201124961517	-0.21479355215783685	0.3189553201592718	0.48238390588893937	-0.22029880096837523	0.39875302103722476	0.541348917608689
79	1.6458333333333333	0.2287357855302005	0.5352162574589849	0.6077327094458426	0.23439773848904505	0.5983910488575944	1.0639590583208485	0.21659698836019128	0.6498846395186143	1.4598635738563992	0.1580831738302785	0.4226926090486622	1.4624532246085717	0.2333674256660584	0.43493459151561603	1.4498738799192954	0.1981682806880468	0.752280162118462	1.5512639801131172	-0.009660888841968088	0.5836165970752363	0.616293242676635	-0.010458377346712698	0.6243630259272296	1.04301580292595	-0.008077693385190734	0.6585298015378263	1.440974380431706	-0.011544771812129302	0.4334469405502521	1.4299022516643436	-0.05556665795357634	0.4798510450865943	1.4393438441509672	0.019159913617661253	0.7323560958384133	1.516290883229513	0.09601231338862456	0.5916704526218712	-0.0035369260601476396	0.07663105384940642	0.4664790676060739	-0.2715192010266457	0.06205415702065517	0.4268530085500842	-0.134808602741374	0.27208817044746575	0.5467776649053868	0.07312018956281166	0.40442016720513563	0.6472042659349841	0.34544741705438303	0.2993252906729098	0.44074129334610235	0.5001907356662182	0.20065351481241991	0.4028078798745753	0.5916625069055808	0.20456675898518906	0.4005148351642593	0.6029239159827826	0.2565728291388295	0.4560003277096062	0.6292520056737577	-0.061664820178795	0.5987690088771191	0.08404746980574197	-0.13579772715085614	0.6949910461160839	0.3486560589159511	-0.1941783386076373	0.49124927091667275	0.4578890210874855	-0.1862566605946764	0.332232311284956	0.46780626094040756	-0.19446516606649736	0.3206794795191563	0.48396099304544904	-0.20002542173381355	0.3525401677456452	0.5398955422618786
80	1.6666666666666667	0.23165551492961328	0.5622806569242061	0.619291485408933	0.23421352518500407	0.5999052739900016	1.0602394654219103	0.2143221954287354	0.6666076472819135	1.4692732416413083	0.15841322496530513	0.4237808060049628	1.4630550743150923	0.22861108891396908	0.4246983752272482	1.4431019629824247	0.19957464132308597	0.7541598827723321	1.5577098801849683	-0.012544533905764885	0.5984102301688613	0.6208113087739718	-0.010457610945755055	0.6258151485496757	1.0527618543350505	-0.008073821175076204	0.6584683224021831	1.4410337202717123	-0.01161224825623743	0.4333704606629425	1.4300172111096454	-0.06338304275930787	0.4936509110521648	1.4475513931232806	0.020469846018675544	0.7320656124259116	1.5100570805110227	0.09601296654924617	0.5917995098531996	-0.0035234378175497006	0.07661466397491398	0.46642284562817876	-0.27159363354719396	0.0621325905404274	0.42679937463003287	-0.1347401669335378	0.2678239996301787	0.545821044176468	0.07304029155522318	0.4047868625831934	0.648860776675253	0.3346321762997955	0.30670914559537293	0.438286080293151	0.4960518955739447	0.20483424809851425	0.3885223211742585	0.5774358641289216	0.21515759637714968	0.3480985868295557	0.5739751455486501	0.2649853900412713	0.42862399480941193	0.6205583075189668	-0.06165577899682142	0.5991366784434725	0.08048839318833778	-0.14041628479431983	0.711009584779336	0.3516379871819435	-0.18609703603030284	0.4797370550003348	0.45444279089751527	-0.1709117381594944	0.30002509914724323	0.4658810760343786	-0.1864526759894738	0.2984482763740344	0.482434418805012	-0.1925502140416579	0.3292548548396079	0.5337635741980464
81	1.6875	0.22388850445421618	0.5327843817044068	0.605407257972025	0.2283097609344273	0.5972206247845354	1.0542211614611237	0.21533295227425717	0.6662952283171136	1.464822525922556	0.15798965779358176	0.42438416194313633	1.4587059964317535	0.23344576372286124	0.43504445418825494	1.4498490291924855	0.19977849356117228	0.7543012635074248	1.5587190759368514	-0.0028710504187674313	0.5664888630933612	0.6029125285373736	-0.011284631774966568	0.6242524645657885	1.0472789542472243	-0.00807139485358924	0.6583254807951948	1.4408685015334428	-0.011604729970530664	0.43345842265148055	1.4298304080157689	-0.05994904961925527	0.479834439064121	1.4391889473192994	0.016647377416014384	0.7203827242736549	1.5071575660137744	0.09597117109559791	0.591998692322965	-0.003479942529974312	0.08063146982852375	0.4671756585490402	-0.2715988333033497	0.06226807365027335	0.42656750775311464	-0.13452126708184117	0.2677266467877507	0.5461960205738905	0.07274842982510599	0.41005031276748594	0.6814300212843007	0.32873334041291075	0.32472267132420735	0.4486579395914222	0.48623977026922977	0.22228469303080733	0.34862557478281986	0.5571722163541165	0.2350788904939601	0.33077275549794466	0.558620216367565	0.29977624407070774	0.39801506479592913	0.5883312458638869	-0.07047821788871228	0.5857509990535401	0.0786397093226958	-0.15405592697344253	0.6929082723716042	0.34428897085885796	-0.16002025384466306	0.43150219083430047	0.44658527276860305	-0.1060362368794739	0.31179398147809984	0.47064723869375524	-0.13800453491849674	0.2555534415764063	0.4700975681326702	-0.1695423724190502	0.3399047298314575	0.5308002533049191
82	1.7083333333333333	0.22339884096625612	0.5327915498710152	0.6090076591903602	0.22733407508070114	0.5957675653890565	1.0494362467859226	0.21433774401775724	0.6664609225356127	1.4694090891908735	0.16337994330397418	0.43668871557482913	1.4662992738717622	0.23364331049735637	0.4353038168050365	1.4498156108489142	0.19975291173524015	0.752471677027594	1.5616548009103166	-0.0033140974299030474	0.5667017565071887	0.6066951615010522	-0.011326644579982934	0.6245064234335459	1.0473936569195577	-0.008106453033163456	0.6583844517176312	1.4407952489081262	-0.011585558617069532	0.4335790359703379	1.4299922911181366	-0.06336378098502743	0.49367344670019636	1.4473781119441578	0.014211084450380294	0.7187054582040843	1.5077403043286641	0.0960097053332583	0.5919491361566496	-0.00351890761126357	0.08073150954457624	0.4672462568259058	-0.2715283977049563	0.06234322629024349	0.42646229929905716	-0.13451076048397043	0.2677158630288013	0.5460006900896893	0.0725978545710023	0.4094318047020831	0.6810421956338804	0.3244609818559739	0.330462013873396	0.45853854934892646	0.47684546361270164	0.2407206732949353	0.3275148290775728	0.5486834651433475	0.2573419700084974	0.33965268609424204	0.5525449346163976	0.3064150553260321	0.38647412639292333	0.5693055593860612	-0.07043528997406696	0.5856509019967346	0.07863578296665377	-0.1542907928410332	0.6913701391129877	0.3400609850062059	-0.14765574360736086	0.4194210729649245	0.4449037086323891	-0.0973855973352762	0.3228375539428223	0.47474465122561665	-0.11772988187153251	0.27965878947502704	0.47625872526167223	-0.15376538116205685	0.3416883239445487	0.5346528365028973
